<svg width="243" height="146" viewBox="0 0 243 146" fill="none" xmlns="http://www.w3.org/2000/svg">
<path d="M0 0H243V131C243 139.284 236.284 146 228 146H15C6.71573 146 0 139.284 0 131V0Z" fill="url(#paint0_radial_15_167)"/>
<path d="M97.1161 78.824V81H84.8281V78.824H89.7401V63.192C89.7401 62.7227 89.7561 62.248 89.7881 61.768L85.7081 65.272C85.5695 65.3893 85.4308 65.464 85.2921 65.496C85.1535 65.5173 85.0255 65.5173 84.9081 65.496C84.7908 65.4747 84.6788 65.432 84.5721 65.368C84.4761 65.304 84.4015 65.2347 84.3481 65.16L83.4521 63.928L90.2841 58.024H92.6041V78.824H97.1161ZM116.991 69.544C116.991 71.5493 116.772 73.288 116.335 74.76C115.908 76.2213 115.321 77.432 114.575 78.392C113.828 79.352 112.943 80.0667 111.919 80.536C110.905 81.0053 109.817 81.24 108.655 81.24C107.481 81.24 106.388 81.0053 105.375 80.536C104.372 80.0667 103.497 79.352 102.751 78.392C102.004 77.432 101.417 76.2213 100.991 74.76C100.564 73.288 100.351 71.5493 100.351 69.544C100.351 67.5387 100.564 65.8 100.991 64.328C101.417 62.856 102.004 61.64 102.751 60.68C103.497 59.7093 104.372 58.9893 105.375 58.52C106.388 58.0507 107.481 57.816 108.655 57.816C109.817 57.816 110.905 58.0507 111.919 58.52C112.943 58.9893 113.828 59.7093 114.575 60.68C115.321 61.64 115.908 62.856 116.335 64.328C116.772 65.8 116.991 67.5387 116.991 69.544ZM114.031 69.544C114.031 67.7947 113.881 66.328 113.583 65.144C113.295 63.9493 112.9 62.9893 112.399 62.264C111.908 61.5387 111.337 61.0213 110.687 60.712C110.036 60.392 109.359 60.232 108.655 60.232C107.951 60.232 107.273 60.392 106.623 60.712C105.972 61.0213 105.401 61.5387 104.911 62.264C104.42 62.9893 104.025 63.9493 103.727 65.144C103.439 66.328 103.295 67.7947 103.295 69.544C103.295 71.2933 103.439 72.76 103.727 73.944C104.025 75.128 104.42 76.0827 104.911 76.808C105.401 77.5333 105.972 78.056 106.623 78.376C107.273 78.6853 107.951 78.84 108.655 78.84C109.359 78.84 110.036 78.6853 110.687 78.376C111.337 78.056 111.908 77.5333 112.399 76.808C112.9 76.0827 113.295 75.128 113.583 73.944C113.881 72.76 114.031 71.2933 114.031 69.544ZM135.553 69.544C135.553 71.5493 135.334 73.288 134.897 74.76C134.47 76.2213 133.884 77.432 133.137 78.392C132.39 79.352 131.505 80.0667 130.481 80.536C129.468 81.0053 128.38 81.24 127.217 81.24C126.044 81.24 124.95 81.0053 123.937 80.536C122.934 80.0667 122.06 79.352 121.313 78.392C120.566 77.432 119.98 76.2213 119.553 74.76C119.126 73.288 118.913 71.5493 118.913 69.544C118.913 67.5387 119.126 65.8 119.553 64.328C119.98 62.856 120.566 61.64 121.313 60.68C122.06 59.7093 122.934 58.9893 123.937 58.52C124.95 58.0507 126.044 57.816 127.217 57.816C128.38 57.816 129.468 58.0507 130.481 58.52C131.505 58.9893 132.39 59.7093 133.137 60.68C133.884 61.64 134.47 62.856 134.897 64.328C135.334 65.8 135.553 67.5387 135.553 69.544ZM132.593 69.544C132.593 67.7947 132.444 66.328 132.145 65.144C131.857 63.9493 131.462 62.9893 130.961 62.264C130.47 61.5387 129.9 61.0213 129.249 60.712C128.598 60.392 127.921 60.232 127.217 60.232C126.513 60.232 125.836 60.392 125.185 60.712C124.534 61.0213 123.964 61.5387 123.473 62.264C122.982 62.9893 122.588 63.9493 122.289 65.144C122.001 66.328 121.857 67.7947 121.857 69.544C121.857 71.2933 122.001 72.76 122.289 73.944C122.588 75.128 122.982 76.0827 123.473 76.808C123.964 77.5333 124.534 78.056 125.185 78.376C125.836 78.6853 126.513 78.84 127.217 78.84C127.921 78.84 128.598 78.6853 129.249 78.376C129.9 78.056 130.47 77.5333 130.961 76.808C131.462 76.0827 131.857 75.128 132.145 73.944C132.444 72.76 132.593 71.2933 132.593 69.544ZM148.068 63.608C148.068 64.504 147.929 65.3093 147.652 66.024C147.374 66.728 147.001 67.3253 146.532 67.816C146.073 68.296 145.534 68.664 144.916 68.92C144.308 69.176 143.662 69.304 142.98 69.304C142.265 69.304 141.598 69.176 140.98 68.92C140.361 68.664 139.822 68.296 139.364 67.816C138.916 67.3253 138.564 66.728 138.308 66.024C138.052 65.3093 137.924 64.504 137.924 63.608C137.924 62.6907 138.052 61.8747 138.308 61.16C138.564 60.4453 138.916 59.8427 139.364 59.352C139.822 58.8613 140.361 58.488 140.98 58.232C141.598 57.976 142.265 57.848 142.98 57.848C143.705 57.848 144.377 57.976 144.996 58.232C145.614 58.488 146.153 58.8613 146.612 59.352C147.07 59.8427 147.428 60.4453 147.684 61.16C147.94 61.8747 148.068 62.6907 148.068 63.608ZM145.86 63.608C145.86 62.904 145.785 62.3067 145.636 61.816C145.486 61.3253 145.278 60.9253 145.012 60.616C144.756 60.296 144.452 60.0667 144.1 59.928C143.748 59.7893 143.374 59.72 142.98 59.72C142.585 59.72 142.217 59.7893 141.876 59.928C141.534 60.0667 141.236 60.296 140.98 60.616C140.724 60.9253 140.521 61.3253 140.372 61.816C140.222 62.3067 140.148 62.904 140.148 63.608C140.148 64.3013 140.222 64.8933 140.372 65.384C140.521 65.864 140.724 66.2587 140.98 66.568C141.236 66.8667 141.534 67.0853 141.876 67.224C142.217 67.352 142.585 67.416 142.98 67.416C143.374 67.416 143.748 67.352 144.1 67.224C144.452 67.0853 144.756 66.8667 145.012 66.568C145.278 66.2587 145.486 65.864 145.636 65.384C145.785 64.8933 145.86 64.3013 145.86 63.608ZM156.18 58.552C156.286 58.424 156.409 58.312 156.548 58.216C156.697 58.12 156.894 58.072 157.14 58.072H159.204L142.436 80.536C142.34 80.6747 142.217 80.7867 142.068 80.872C141.918 80.9573 141.737 81 141.524 81H139.428L156.18 58.552ZM160.756 75.592C160.756 76.488 160.617 77.288 160.34 77.992C160.062 78.696 159.689 79.2933 159.22 79.784C158.761 80.264 158.222 80.632 157.604 80.888C156.996 81.144 156.35 81.272 155.668 81.272C154.942 81.272 154.27 81.144 153.652 80.888C153.044 80.632 152.51 80.264 152.052 79.784C151.604 79.2933 151.252 78.696 150.996 77.992C150.74 77.288 150.612 76.488 150.612 75.592C150.612 74.6747 150.74 73.8587 150.996 73.144C151.252 72.4187 151.604 71.8107 152.052 71.32C152.51 70.8293 153.044 70.456 153.652 70.2C154.27 69.944 154.942 69.816 155.668 69.816C156.382 69.816 157.049 69.944 157.668 70.2C158.297 70.456 158.836 70.8293 159.284 71.32C159.742 71.8107 160.1 72.4187 160.356 73.144C160.622 73.8587 160.756 74.6747 160.756 75.592ZM158.548 75.592C158.548 74.888 158.473 74.2907 158.324 73.8C158.174 73.2987 157.966 72.8933 157.7 72.584C157.444 72.2747 157.14 72.0507 156.788 71.912C156.436 71.7733 156.062 71.704 155.668 71.704C155.273 71.704 154.9 71.7733 154.548 71.912C154.206 72.0507 153.908 72.2747 153.652 72.584C153.396 72.8933 153.193 73.2987 153.044 73.8C152.905 74.2907 152.836 74.888 152.836 75.592C152.836 76.2853 152.905 76.872 153.044 77.352C153.193 77.832 153.396 78.2267 153.652 78.536C153.908 78.8347 154.206 79.0533 154.548 79.192C154.9 79.32 155.273 79.384 155.668 79.384C156.062 79.384 156.436 79.32 156.788 79.192C157.14 79.0533 157.444 78.8347 157.7 78.536C157.966 78.2267 158.174 77.832 158.324 77.352C158.473 76.872 158.548 76.2853 158.548 75.592ZM49.4303 114.264C49.6009 114.264 49.7503 114.333 49.8783 114.472L51.1103 115.8C50.1716 116.888 49.0303 117.736 47.6863 118.344C46.3529 118.952 44.7369 119.256 42.8383 119.256C41.1956 119.256 39.7023 118.973 38.3583 118.408C37.0143 117.832 35.8676 117.032 34.9183 116.008C33.9689 114.973 33.2329 113.736 32.7103 112.296C32.1876 110.856 31.9263 109.272 31.9263 107.544C31.9263 105.816 32.1983 104.232 32.7423 102.792C33.2863 101.352 34.0489 100.115 35.0303 99.08C36.0223 98.0453 37.2063 97.2453 38.5823 96.68C39.9583 96.104 41.4783 95.816 43.1423 95.816C44.7743 95.816 46.2143 96.0773 47.4623 96.6C48.7103 97.1227 49.8089 97.832 50.7583 98.728L49.7343 100.152C49.6703 100.259 49.5849 100.349 49.4783 100.424C49.3823 100.488 49.2489 100.52 49.0783 100.52C48.8863 100.52 48.6516 100.419 48.3743 100.216C48.0969 100.003 47.7343 99.768 47.2863 99.512C46.8383 99.256 46.2783 99.0267 45.6063 98.824C44.9343 98.6107 44.1076 98.504 43.1263 98.504C41.9423 98.504 40.8596 98.712 39.8783 99.128C38.8969 99.5333 38.0489 100.125 37.3343 100.904C36.6303 101.683 36.0809 102.632 35.6863 103.752C35.2916 104.872 35.0943 106.136 35.0943 107.544C35.0943 108.973 35.2969 110.248 35.7023 111.368C36.1183 112.488 36.6783 113.437 37.3823 114.216C38.0969 114.984 38.9343 115.571 39.8943 115.976C40.8649 116.381 41.9103 116.584 43.0303 116.584C43.7129 116.584 44.3263 116.547 44.8703 116.472C45.4249 116.387 45.9316 116.259 46.3903 116.088C46.8596 115.917 47.2916 115.704 47.6863 115.448C48.0916 115.181 48.4916 114.867 48.8863 114.504C49.0676 114.344 49.2489 114.264 49.4303 114.264ZM60.5568 102.536C61.7408 102.536 62.8074 102.733 63.7568 103.128C64.7061 103.523 65.5168 104.083 66.1888 104.808C66.8608 105.533 67.3728 106.413 67.7248 107.448C68.0874 108.472 68.2688 109.619 68.2688 110.888C68.2688 112.168 68.0874 113.32 67.7248 114.344C67.3728 115.368 66.8608 116.243 66.1888 116.968C65.5168 117.693 64.7061 118.253 63.7568 118.648C62.8074 119.032 61.7408 119.224 60.5568 119.224C59.3621 119.224 58.2848 119.032 57.3248 118.648C56.3754 118.253 55.5648 117.693 54.8928 116.968C54.2208 116.243 53.7034 115.368 53.3408 114.344C52.9888 113.32 52.8128 112.168 52.8128 110.888C52.8128 109.619 52.9888 108.472 53.3408 107.448C53.7034 106.413 54.2208 105.533 54.8928 104.808C55.5648 104.083 56.3754 103.523 57.3248 103.128C58.2848 102.733 59.3621 102.536 60.5568 102.536ZM60.5568 117C62.1568 117 63.3514 116.467 64.1408 115.4C64.9301 114.323 65.3248 112.824 65.3248 110.904C65.3248 108.973 64.9301 107.469 64.1408 106.392C63.3514 105.315 62.1568 104.776 60.5568 104.776C59.7461 104.776 59.0368 104.915 58.4288 105.192C57.8314 105.469 57.3301 105.869 56.9248 106.392C56.5301 106.915 56.2314 107.56 56.0288 108.328C55.8368 109.085 55.7408 109.944 55.7408 110.904C55.7408 112.824 56.1354 114.323 56.9248 115.4C57.7248 116.467 58.9354 117 60.5568 117ZM74.825 95.432V119H71.977V95.432H74.825ZM90.0035 106.648C89.4702 105.933 88.8942 105.437 88.2755 105.16C87.6568 104.872 86.9635 104.728 86.1955 104.728C84.6915 104.728 83.5342 105.267 82.7235 106.344C81.9128 107.421 81.5075 108.957 81.5075 110.952C81.5075 112.008 81.5982 112.915 81.7795 113.672C81.9608 114.419 82.2275 115.037 82.5795 115.528C82.9315 116.008 83.3635 116.36 83.8755 116.584C84.3875 116.808 84.9688 116.92 85.6195 116.92C86.5582 116.92 87.3742 116.707 88.0675 116.28C88.7715 115.853 89.4168 115.251 90.0035 114.472V106.648ZM92.8515 95.432V119H91.1555C90.7502 119 90.4942 118.803 90.3875 118.408L90.1315 116.44C89.4382 117.272 88.6488 117.944 87.7635 118.456C86.8782 118.968 85.8542 119.224 84.6915 119.224C83.7635 119.224 82.9208 119.048 82.1635 118.696C81.4062 118.333 80.7608 117.805 80.2275 117.112C79.6942 116.419 79.2835 115.555 78.9955 114.52C78.7075 113.485 78.5635 112.296 78.5635 110.952C78.5635 109.757 78.7235 108.648 79.0435 107.624C79.3635 106.589 79.8222 105.693 80.4195 104.936C81.0168 104.179 81.7475 103.587 82.6115 103.16C83.4862 102.723 84.4675 102.504 85.5555 102.504C86.5475 102.504 87.3955 102.675 88.0995 103.016C88.8142 103.347 89.4488 103.811 90.0035 104.408V95.432H92.8515ZM112.977 107.96C113.863 107.96 114.641 107.843 115.313 107.608C115.996 107.373 116.567 107.048 117.025 106.632C117.495 106.205 117.847 105.699 118.081 105.112C118.316 104.525 118.433 103.88 118.433 103.176C118.433 101.715 117.98 100.573 117.073 99.752C116.177 98.9307 114.812 98.52 112.977 98.52H109.297V107.96H112.977ZM112.977 96.072C114.428 96.072 115.687 96.2427 116.753 96.584C117.831 96.9147 118.721 97.3893 119.425 98.008C120.129 98.6267 120.652 99.3733 120.993 100.248C121.345 101.123 121.521 102.099 121.521 103.176C121.521 104.243 121.335 105.219 120.961 106.104C120.588 106.989 120.039 107.752 119.313 108.392C118.599 109.032 117.708 109.533 116.641 109.896C115.585 110.248 114.364 110.424 112.977 110.424H109.297V119H106.209V96.072H112.977ZM127.148 106.04C127.66 104.931 128.289 104.067 129.036 103.448C129.782 102.819 130.694 102.504 131.772 102.504C132.113 102.504 132.438 102.541 132.748 102.616C133.068 102.691 133.35 102.808 133.596 102.968L133.388 105.096C133.324 105.363 133.164 105.496 132.908 105.496C132.758 105.496 132.54 105.464 132.252 105.4C131.964 105.336 131.638 105.304 131.276 105.304C130.764 105.304 130.305 105.379 129.9 105.528C129.505 105.677 129.148 105.901 128.828 106.2C128.518 106.488 128.236 106.851 127.98 107.288C127.734 107.715 127.51 108.205 127.308 108.76V119H124.444V102.792H126.076C126.385 102.792 126.598 102.851 126.716 102.968C126.833 103.085 126.913 103.288 126.956 103.576L127.148 106.04ZM146.292 109.128C146.292 108.467 146.196 107.864 146.004 107.32C145.822 106.765 145.55 106.291 145.188 105.896C144.836 105.491 144.404 105.181 143.892 104.968C143.38 104.744 142.798 104.632 142.148 104.632C140.782 104.632 139.7 105.032 138.9 105.832C138.11 106.621 137.62 107.72 137.428 109.128H146.292ZM148.596 116.728C148.244 117.155 147.822 117.528 147.332 117.848C146.841 118.157 146.313 118.413 145.748 118.616C145.193 118.819 144.617 118.968 144.02 119.064C143.422 119.171 142.83 119.224 142.244 119.224C141.124 119.224 140.089 119.037 139.14 118.664C138.201 118.28 137.385 117.725 136.692 117C136.009 116.264 135.476 115.357 135.092 114.28C134.708 113.203 134.516 111.965 134.516 110.568C134.516 109.437 134.686 108.381 135.028 107.4C135.38 106.419 135.881 105.571 136.532 104.856C137.182 104.131 137.977 103.565 138.916 103.16C139.854 102.744 140.91 102.536 142.084 102.536C143.054 102.536 143.95 102.701 144.772 103.032C145.604 103.352 146.318 103.821 146.916 104.44C147.524 105.048 147.998 105.805 148.34 106.712C148.681 107.608 148.852 108.632 148.852 109.784C148.852 110.232 148.804 110.531 148.708 110.68C148.612 110.829 148.43 110.904 148.164 110.904H137.332C137.364 111.928 137.502 112.819 137.748 113.576C138.004 114.333 138.356 114.968 138.804 115.48C139.252 115.981 139.785 116.36 140.404 116.616C141.022 116.861 141.716 116.984 142.484 116.984C143.198 116.984 143.812 116.904 144.324 116.744C144.846 116.573 145.294 116.392 145.668 116.2C146.041 116.008 146.35 115.832 146.596 115.672C146.852 115.501 147.07 115.416 147.252 115.416C147.486 115.416 147.668 115.507 147.796 115.688L148.596 116.728ZM161.79 105.464C161.662 105.699 161.464 105.816 161.198 105.816C161.038 105.816 160.856 105.757 160.654 105.64C160.451 105.523 160.2 105.395 159.902 105.256C159.614 105.107 159.267 104.973 158.862 104.856C158.456 104.728 157.976 104.664 157.422 104.664C156.942 104.664 156.51 104.728 156.126 104.856C155.742 104.973 155.411 105.139 155.134 105.352C154.867 105.565 154.659 105.816 154.51 106.104C154.371 106.381 154.302 106.685 154.302 107.016C154.302 107.432 154.419 107.779 154.654 108.056C154.899 108.333 155.219 108.573 155.614 108.776C156.008 108.979 156.456 109.16 156.958 109.32C157.459 109.469 157.971 109.635 158.494 109.816C159.027 109.987 159.544 110.179 160.046 110.392C160.547 110.605 160.995 110.872 161.39 111.192C161.784 111.512 162.099 111.907 162.334 112.376C162.579 112.835 162.702 113.389 162.702 114.04C162.702 114.787 162.568 115.48 162.302 116.12C162.035 116.749 161.64 117.299 161.118 117.768C160.595 118.227 159.955 118.589 159.198 118.856C158.44 119.123 157.566 119.256 156.574 119.256C155.443 119.256 154.419 119.075 153.502 118.712C152.584 118.339 151.806 117.864 151.166 117.288L151.838 116.2C151.923 116.061 152.024 115.955 152.142 115.88C152.259 115.805 152.408 115.768 152.59 115.768C152.782 115.768 152.984 115.843 153.198 115.992C153.411 116.141 153.667 116.307 153.966 116.488C154.275 116.669 154.648 116.835 155.086 116.984C155.523 117.133 156.067 117.208 156.718 117.208C157.272 117.208 157.758 117.139 158.174 117C158.59 116.851 158.936 116.653 159.214 116.408C159.491 116.163 159.694 115.88 159.822 115.56C159.96 115.24 160.03 114.899 160.03 114.536C160.03 114.088 159.907 113.72 159.662 113.432C159.427 113.133 159.112 112.883 158.718 112.68C158.323 112.467 157.87 112.285 157.358 112.136C156.856 111.976 156.339 111.811 155.806 111.64C155.283 111.469 154.766 111.277 154.254 111.064C153.752 110.84 153.304 110.563 152.91 110.232C152.515 109.901 152.195 109.496 151.95 109.016C151.715 108.525 151.598 107.933 151.598 107.24C151.598 106.621 151.726 106.029 151.982 105.464C152.238 104.888 152.611 104.387 153.102 103.96C153.592 103.523 154.195 103.176 154.91 102.92C155.624 102.664 156.44 102.536 157.358 102.536C158.424 102.536 159.379 102.707 160.222 103.048C161.075 103.379 161.811 103.837 162.43 104.424L161.79 105.464ZM175.634 105.464C175.506 105.699 175.308 105.816 175.042 105.816C174.882 105.816 174.7 105.757 174.498 105.64C174.295 105.523 174.044 105.395 173.746 105.256C173.458 105.107 173.111 104.973 172.706 104.856C172.3 104.728 171.82 104.664 171.266 104.664C170.786 104.664 170.354 104.728 169.97 104.856C169.586 104.973 169.255 105.139 168.978 105.352C168.711 105.565 168.503 105.816 168.354 106.104C168.215 106.381 168.146 106.685 168.146 107.016C168.146 107.432 168.263 107.779 168.498 108.056C168.743 108.333 169.063 108.573 169.458 108.776C169.852 108.979 170.3 109.16 170.802 109.32C171.303 109.469 171.815 109.635 172.338 109.816C172.871 109.987 173.388 110.179 173.89 110.392C174.391 110.605 174.839 110.872 175.234 111.192C175.628 111.512 175.943 111.907 176.178 112.376C176.423 112.835 176.546 113.389 176.546 114.04C176.546 114.787 176.412 115.48 176.146 116.12C175.879 116.749 175.484 117.299 174.962 117.768C174.439 118.227 173.799 118.589 173.042 118.856C172.284 119.123 171.41 119.256 170.418 119.256C169.287 119.256 168.263 119.075 167.346 118.712C166.428 118.339 165.65 117.864 165.01 117.288L165.682 116.2C165.767 116.061 165.868 115.955 165.986 115.88C166.103 115.805 166.252 115.768 166.434 115.768C166.626 115.768 166.828 115.843 167.042 115.992C167.255 116.141 167.511 116.307 167.81 116.488C168.119 116.669 168.492 116.835 168.93 116.984C169.367 117.133 169.911 117.208 170.562 117.208C171.116 117.208 171.602 117.139 172.017 117C172.434 116.851 172.78 116.653 173.058 116.408C173.335 116.163 173.538 115.88 173.666 115.56C173.804 115.24 173.874 114.899 173.874 114.536C173.874 114.088 173.751 113.72 173.506 113.432C173.271 113.133 172.956 112.883 172.562 112.68C172.167 112.467 171.714 112.285 171.202 112.136C170.7 111.976 170.183 111.811 169.65 111.64C169.127 111.469 168.61 111.277 168.098 111.064C167.596 110.84 167.148 110.563 166.754 110.232C166.359 109.901 166.039 109.496 165.794 109.016C165.559 108.525 165.442 107.933 165.442 107.24C165.442 106.621 165.57 106.029 165.826 105.464C166.082 104.888 166.455 104.387 166.946 103.96C167.436 103.523 168.039 103.176 168.754 102.92C169.468 102.664 170.284 102.536 171.202 102.536C172.268 102.536 173.223 102.707 174.066 103.048C174.919 103.379 175.655 103.837 176.274 104.424L175.634 105.464ZM190.885 109.128C190.885 108.467 190.789 107.864 190.597 107.32C190.416 106.765 190.144 106.291 189.781 105.896C189.429 105.491 188.997 105.181 188.485 104.968C187.973 104.744 187.392 104.632 186.741 104.632C185.376 104.632 184.293 105.032 183.493 105.832C182.704 106.621 182.213 107.72 182.021 109.128H190.885ZM193.189 116.728C192.837 117.155 192.416 117.528 191.925 117.848C191.435 118.157 190.907 118.413 190.341 118.616C189.787 118.819 189.211 118.968 188.613 119.064C188.016 119.171 187.424 119.224 186.837 119.224C185.717 119.224 184.683 119.037 183.733 118.664C182.795 118.28 181.979 117.725 181.285 117C180.603 116.264 180.069 115.357 179.685 114.28C179.301 113.203 179.109 111.965 179.109 110.568C179.109 109.437 179.28 108.381 179.621 107.4C179.973 106.419 180.475 105.571 181.125 104.856C181.776 104.131 182.571 103.565 183.509 103.16C184.448 102.744 185.504 102.536 186.677 102.536C187.648 102.536 188.544 102.701 189.365 103.032C190.197 103.352 190.912 103.821 191.509 104.44C192.117 105.048 192.592 105.805 192.933 106.712C193.275 107.608 193.445 108.632 193.445 109.784C193.445 110.232 193.397 110.531 193.301 110.68C193.205 110.829 193.024 110.904 192.757 110.904H181.925C181.957 111.928 182.096 112.819 182.341 113.576C182.597 114.333 182.949 114.968 183.397 115.48C183.845 115.981 184.379 116.36 184.997 116.616C185.616 116.861 186.309 116.984 187.077 116.984C187.792 116.984 188.405 116.904 188.917 116.744C189.44 116.573 189.888 116.392 190.261 116.2C190.635 116.008 190.944 115.832 191.189 115.672C191.445 115.501 191.664 115.416 191.845 115.416C192.08 115.416 192.261 115.507 192.389 115.688L193.189 116.728ZM207.504 106.648C206.97 105.933 206.394 105.437 205.776 105.16C205.157 104.872 204.464 104.728 203.696 104.728C202.192 104.728 201.034 105.267 200.224 106.344C199.413 107.421 199.008 108.957 199.008 110.952C199.008 112.008 199.098 112.915 199.28 113.672C199.461 114.419 199.728 115.037 200.08 115.528C200.432 116.008 200.864 116.36 201.376 116.584C201.888 116.808 202.469 116.92 203.12 116.92C204.058 116.92 204.874 116.707 205.568 116.28C206.272 115.853 206.917 115.251 207.504 114.472V106.648ZM210.352 95.432V119H208.656C208.25 119 207.994 118.803 207.888 118.408L207.632 116.44C206.938 117.272 206.149 117.944 205.264 118.456C204.378 118.968 203.354 119.224 202.192 119.224C201.264 119.224 200.421 119.048 199.664 118.696C198.906 118.333 198.261 117.805 197.728 117.112C197.194 116.419 196.784 115.555 196.496 114.52C196.208 113.485 196.064 112.296 196.064 110.952C196.064 109.757 196.224 108.648 196.544 107.624C196.864 106.589 197.322 105.693 197.92 104.936C198.517 104.179 199.248 103.587 200.112 103.16C200.986 102.723 201.968 102.504 203.056 102.504C204.048 102.504 204.896 102.675 205.6 103.016C206.314 103.347 206.949 103.811 207.504 104.408V95.432H210.352Z" fill="white"/>
<defs>
<radialGradient id="paint0_radial_15_167" cx="0" cy="0" r="1" gradientTransform="matrix(243 146 -243 338.8 0 0)" gradientUnits="userSpaceOnUse">
<stop stop-color="#F3F4B6"/>
<stop offset="0.338472" stop-color="#E7BF2B"/>
<stop offset="0.799776" stop-color="#DF9415"/>
</radialGradient>
</defs>
</svg>
